<?xml version="1.0" ?><svg viewBox="0 0 64 64" xmlns="http://www.w3.org/2000/svg"><g id="a"/><g id="b"/><g id="c"/><g id="d"/><g id="e"/><g id="f"/><g id="g"/><g id="h"/><g id="i"/><g id="j"/><g id="k"/><g id="l"/><g id="m"/><g id="n"/><g id="o"/><g id="p"/><g id="q"/><g id="r"/><g id="s"/><g id="t"/><g id="u"/><g id="v"/><g id="w"/><g id="x"/><g id="y"/><g id="a`"/><g id="aa"/><g id="ab"/><g id="ac"/><g id="ad"/><g id="ae"/><g id="af"/><g id="ag"/><g id="ah"/><g id="ai"/><g id="aj"/><g id="ak"><path d="M6.7,52.48c-.73,.23-.73,1.27,0,1.49,2.14,.65,3.82,2.33,4.47,4.47,.23,.74,1.26,.74,1.49,0,.65-2.14,2.33-3.82,4.47-4.47,.74-.22,.74-1.26,0-1.49-2.14-.65-3.82-2.33-4.47-4.47-.12-.38-.5-.61-.89-.54-.29,.05-.52,.26-.61,.54-.65,2.14-2.33,3.82-4.47,4.47h0Z" fill="#f5e680" fill-rule="evenodd"/><path d="M48.6,43.6c-.75-.17-1.27,.73-.74,1.29,1.53,1.64,2.14,3.93,1.64,6.11-.17,.75,.73,1.27,1.29,.74,1.64-1.53,3.93-2.14,6.11-1.64,.75,.17,1.27-.73,.75-1.29-1.53-1.64-2.14-3.93-1.64-6.11,.09-.39-.13-.78-.5-.91-.27-.1-.58-.04-.79,.16-1.64,1.53-3.93,2.14-6.11,1.64Z" fill="#f5e680" fill-rule="evenodd"/><path d="M9.16,8.86c-.77,.07-.98,1.09-.3,1.46,1.96,1.08,3.26,3.07,3.45,5.3,.07,.77,1.09,.98,1.46,.31,1.08-1.96,3.07-3.26,5.3-3.46,.77-.07,.98-1.09,.31-1.46-1.96-1.08-3.26-3.07-3.46-5.3-.04-.4-.36-.7-.76-.71-.29,0-.56,.15-.7,.4-1.08,1.96-3.07,3.26-5.3,3.46Z" fill="#f5e680" fill-rule="evenodd"/><path d="M46.33,12.18c-.54,.17-.53,.93,.01,1.09,1.57,.46,2.82,1.67,3.31,3.23,.17,.54,.93,.53,1.09-.01,.46-1.57,1.67-2.82,3.23-3.31,.54-.17,.53-.93-.01-1.09-1.57-.46-2.82-1.67-3.31-3.23-.09-.28-.37-.44-.65-.39-.21,.04-.38,.19-.44,.4-.46,1.57-1.67,2.82-3.23,3.31h0Z" fill="#f5e680" fill-rule="evenodd"/><path d="M52.08,30.47l-20.46-1.38-19.7,1.38c.07,.66,.32,1.29,.71,1.83l17.24,23.41c1.05,1.43,3.2,1.43,4.25,0l17.24-23.41c.39-.54,.64-1.17,.71-1.83Z" fill="#caaee9" fill-rule="evenodd"/><polygon fill="#bb94e1" fill-rule="evenodd" points="25.3 30.47 32 55.82 38.7 30.47 32.36 28.71 25.3 30.47"/><path d="M47.5,30.16c0,.1,0,.21-.01,.31-.07,.66-.32,1.29-.71,1.83l-14.77,24.49c.8,0,1.6-.36,2.12-1.07l17.24-23.41c.39-.54,.64-1.17,.71-1.83l-4.58-.31Z" fill="#bb94e1" fill-rule="evenodd"/><path d="M45.35,16.5c.66,.43,1.19,1.02,1.53,1.73l4.86,10.19c.3,.64,.42,1.35,.34,2.05H11.92c-.08-.7,.04-1.41,.34-2.05l4.86-10.19c.35-.7,.87-1.3,1.53-1.73l3.79,3,9.56-3.74,5.85,3.8,7.5-3.06Z" fill="#dcc7f0" fill-rule="evenodd"/><path d="M45.35,16.5l-3.28,1.34c.08,.13,.16,.25,.22,.39l4.86,10.19c.3,.64,.42,1.35,.34,2.05h4.59c.08-.7-.04-1.41-.34-2.05l-4.86-10.19c-.35-.7-.87-1.3-1.53-1.73Z" fill="#caaee9" fill-rule="evenodd"/><path d="M32,15.76l6.7,14.71c2.22-4.66,4.44-9.32,6.66-13.98-.7-.46-1.52-.72-2.39-.72h-10.97Zm-10.97,0c-.87,0-1.69,.26-2.39,.72,2.22,4.66,4.44,9.32,6.66,13.98l6.7-14.71h-10.97Z" fill="#ebe4f1" fill-rule="evenodd"/><path d="M38.38,15.76c.87,0,1.69,.26,2.39,.72v.02c.65,.43,1.18,1.02,1.52,1.73l1.12,2.35c.65-1.36,1.3-2.73,1.95-4.09-.7-.46-1.52-.72-2.39-.72h-4.59Z" fill="#dcc7f0" fill-rule="evenodd"/><path d="M21.03,14.76c-2.05,0-3.94,1.19-4.81,3.04l-4.86,10.19c-.76,1.6-.58,3.48,.47,4.9l17.24,23.41c.68,.93,1.78,1.48,2.93,1.48s2.25-.55,2.93-1.48l17.24-23.41c1.05-1.42,1.23-3.3,.47-4.9l-4.86-10.19c-.88-1.85-2.77-3.04-4.81-3.04H21.03Zm23,2.19l-5.31,11.15-5.16-11.34h9.42c.37,0,.72,.08,1.06,.19Zm-17.43,14.52h10.8l-5.4,20.44-5.4-20.44Zm.26-2l5.14-11.29,5.14,11.29h-10.29Zm3.59-12.71l-5.16,11.34-5.31-11.15c.34-.12,.69-.19,1.06-.19h9.42Zm-12.42,1.9c.08-.18,.21-.32,.32-.48l5.38,11.29H12.97c.05-.21,.1-.42,.2-.62l4.86-10.19Zm-4.58,13.04c-.05-.07-.08-.16-.13-.24h11.22l6.27,23.75c-.35-.37-.05,0-17.37-23.51Zm19.76,23.51l6.27-23.75h11.22c-.05,.08-.07,.16-.13,.24-17.27,23.45-17.02,23.14-17.37,23.51Zm17.64-26.37c.09,.2,.15,.41,.2,.62h-10.75l5.38-11.29c.11,.16,.24,.3,.32,.48l4.86,10.19Z"/><path d="M6.4,51.53c-.75,.23-1.26,.92-1.25,1.7s.51,1.47,1.26,1.7c1.83,.56,3.25,1.98,3.81,3.81,.23,.75,.91,1.26,1.7,1.26h0c.79,0,1.47-.5,1.7-1.26,.56-1.83,1.98-3.25,3.81-3.81,.75-.23,1.26-.91,1.26-1.7,0-.79-.5-1.47-1.26-1.71-1.83-.56-3.25-1.98-3.81-3.81-.26-.87-1.13-1.4-2.02-1.23-.66,.12-1.19,.59-1.38,1.23-.56,1.83-1.98,3.25-3.81,3.81h0Zm5.51-2.62c.79,1.98,2.35,3.54,4.32,4.33-1.98,.79-3.54,2.35-4.33,4.32-.78-1.98-2.35-3.54-4.32-4.32,1.98-.79,3.54-2.35,4.32-4.33Zm-4.92,4.54h0Z"/><path d="M55.84,40.86c-.63-.22-1.32-.08-1.81,.38-1.4,1.3-3.34,1.82-5.2,1.39h0c-.77-.18-1.55,.16-1.94,.85-.39,.68-.29,1.53,.24,2.1,1.3,1.4,1.82,3.34,1.39,5.2-.18,.77,.16,1.55,.84,1.94,.28,.16,.59,.24,.89,.24,.44,0,.87-.16,1.21-.48,1.39-1.3,3.33-1.83,5.2-1.39,.76,.18,1.55-.16,1.94-.84,.39-.68,.3-1.53-.24-2.1-1.3-1.4-1.83-3.34-1.39-5.2,.2-.88-.29-1.77-1.14-2.08Zm-5.25,9.74c.31-2.1-.26-4.24-1.58-5.91,2.1,.31,4.24-.26,5.91-1.58-.31,2.11,.26,4.24,1.58,5.91-2.11-.31-4.24,.26-5.91,1.58Z"/><path d="M16.92,5.62c-.08-.9-.83-1.6-1.73-1.62-.66-.03-1.28,.33-1.61,.92-.92,1.67-2.61,2.77-4.51,2.94h0c-.78,.07-1.42,.64-1.58,1.41s.2,1.54,.88,1.92c1.67,.92,2.77,2.61,2.94,4.51,.07,.78,.64,1.42,1.41,1.58,.12,.03,.25,.04,.37,.04,.64,0,1.23-.34,1.55-.92,.92-1.67,2.61-2.77,4.51-2.94,.78-.07,1.42-.63,1.58-1.4,.16-.77-.19-1.54-.88-1.93-1.67-.92-2.77-2.61-2.94-4.51Zm-3.69,9.28c-.36-2.1-1.57-3.95-3.34-5.12,2.1-.36,3.95-1.57,5.12-3.34,.36,2.1,1.57,3.95,3.34,5.12-2.1,.36-3.95,1.57-5.12,3.34Z"/><path d="M54.24,11.12c-1.25-.37-2.24-1.33-2.64-2.58-.24-.76-1.01-1.22-1.79-1.06-.58,.11-1.04,.53-1.21,1.1-.37,1.26-1.33,2.24-2.57,2.64h0c-.66,.21-1.1,.82-1.09,1.52,0,.69,.46,1.29,1.13,1.49,1.26,.37,2.24,1.33,2.64,2.58,.21,.65,.81,1.09,1.49,1.09h.02c.69,0,1.29-.46,1.49-1.13,.37-1.26,1.33-2.24,2.58-2.64,.66-.21,1.1-.82,1.09-1.51s-.46-1.29-1.13-1.49Zm-7.61,2.01h.03s-.02,0-.03,0Zm3.55,2.06c-.57-1.07-1.46-1.94-2.55-2.49,1.07-.57,1.94-1.47,2.49-2.55,.57,1.07,1.46,1.94,2.55,2.49-1.07,.57-1.94,1.46-2.49,2.55Z"/></g><g id="al"/><g id="am"/><g id="an"/><g id="ao"/><g id="ap"/><g id="aq"/><g id="ar"/><g id="as"/><g id="at"/><g id="au"/><g id="av"/><g id="aw"/><g id="ax"/></svg>