<?xml version="1.0" encoding="UTF-8" standalone="no"?>
<svg
   xmlns:dc="http://purl.org/dc/elements/1.1/"
   xmlns:cc="http://creativecommons.org/ns#"
   xmlns:rdf="http://www.w3.org/1999/02/22-rdf-syntax-ns#"
   xmlns:svg="http://www.w3.org/2000/svg"
   xmlns="http://www.w3.org/2000/svg"
   id="svg6481"
   version="1.1"
   viewBox="0 0 36.082214 36.082566"
   height="36.082565mm"
   width="36.082214mm">
  <defs
     id="defs6475" />
  <metadata
     id="metadata6478">
    <rdf:RDF>
      <cc:Work
         rdf:about="">
        <dc:format>image/svg+xml</dc:format>
        <dc:type
           rdf:resource="http://purl.org/dc/dcmitype/StillImage" />
        <dc:title></dc:title>
      </cc:Work>
    </rdf:RDF>
  </metadata>
  <g
     transform="translate(-52.251423,-50.777928)"
     id="layer1">
    <g
       id="g6293"
       transform="matrix(0.35277777,0,0,-0.35277777,-73.672858,157.66595)">
      <g
         id="g442"
         transform="translate(456.39637,251.84903)">
        <path
           d="m 0,0 c 0,-26.679 -21.628,-48.306 -48.307,-48.306 -26.677,0 -48.304,21.627 -48.304,48.306 0,26.679 21.627,48.306 48.304,48.306 C -21.628,48.306 0,26.679 0,0"
           style="fill:#242e3c;fill-opacity:1;fill-rule:nonzero;stroke:none"
           id="path444" />
      </g>
      <g
         id="g446"
         transform="translate(452.07897,248.20943)">
        <path
           d="m 0,0 c 0,-9.22 -19.695,-16.692 -43.989,-16.692 -24.293,0 -43.989,7.472 -43.989,16.692 0,9.22 19.221,23.973 43.516,23.973 C -20.168,23.973 0,9.22 0,0"
           style="fill:#ffffff;fill-opacity:1;fill-rule:nonzero;stroke:none"
           id="path448" />
      </g>
      <g
         id="g450"
         transform="translate(408.62877,269.11223)">
        <path
           d="m 0,0 c -8.661,0 -15.706,-7.046 -15.706,-15.707 0,-8.66 7.045,-15.706 15.706,-15.706 8.66,0 15.707,7.046 15.707,15.706 C 15.707,-7.046 8.66,0 0,0 m 0,-33.617 c -9.876,0 -17.911,8.035 -17.911,17.91 0,9.876 8.035,17.912 17.911,17.912 9.875,0 17.91,-8.036 17.91,-17.912 0,-9.875 -8.035,-17.91 -17.91,-17.91"
           style="fill:#30bec7;fill-opacity:1;fill-rule:nonzero;stroke:none"
           id="path452" />
      </g>
      <g
         id="g454"
         transform="translate(417.81137,253.40573)">
        <path
           d="m 0,0 c 0,-5.07 -4.111,-9.182 -9.183,-9.182 -5.07,0 -9.183,4.112 -9.183,9.182 0,5.071 4.113,9.183 9.183,9.183 C -4.111,9.183 0,5.071 0,0"
           style="fill:#30bec7;fill-opacity:1;fill-rule:nonzero;stroke:none"
           id="path456" />
      </g>
      <g
         id="g458"
         transform="translate(418.37777,257.28213)">
        <path
           d="m 0,0 c 0,-3.144 -2.796,-5.692 -6.242,-5.692 -3.446,0 -6.241,2.548 -6.241,5.692 0,3.144 2.795,5.691 6.241,5.691 C -2.796,5.691 0,3.144 0,0"
           style="fill:#ffffff;fill-opacity:1;fill-rule:nonzero;stroke:none"
           id="path460" />
      </g>
      <g
         id="g462"
         transform="translate(378.14047,270.69963)">
        <path
           d="M 0,0 -6.869,3.842 C -7.711,3.43 -8.478,3.036 -9.173,2.665 L -4.407,0 -1.146,-1.824 c 0.653,0.362 1.414,0.764 2.278,1.191 z"
           style="fill:#f05727;fill-opacity:1;fill-rule:nonzero;stroke:none"
           id="path464" />
      </g>
      <g
         id="g466"
         transform="translate(398.08677,275.94473)">
        <path
           d="M 0,0 -3.161,5.979 C -3.917,5.863 -4.666,5.741 -5.399,5.607 l 3.164,-5.982 C -1.505,-0.238 -0.759,-0.113 0,0"
           style="fill:#f05727;fill-opacity:1;fill-rule:nonzero;stroke:none"
           id="path468" />
      </g>
      <g
         id="g470"
         transform="translate(418.51257,275.59953)">
        <path
           d="M 0,0 C 1.081,2.047 1.877,3.55 3.118,5.897 2.37,6.038 1.626,6.167 0.888,6.284 -0.291,4.056 -1.076,2.57 -2.236,0.375 -1.497,0.266 -0.75,0.139 0,0"
           style="fill:#f05727;fill-opacity:1;fill-rule:nonzero;stroke:none"
           id="path472" />
      </g>
      <g
         id="g474"
         transform="translate(442.89927,274.44133)">
        <path
           d="m 0,0 -6.689,-3.742 -1.075,-0.6 c 0.771,-0.37 1.544,-0.759 2.322,-1.168 l 3.159,1.768 4.614,2.58 C 1.551,-0.759 0.774,-0.373 0,0"
           style="fill:#f05727;fill-opacity:1;fill-rule:nonzero;stroke:none"
           id="path476" />
      </g>
    </g>
  </g>
</svg>
